<svg xmlns="http://www.w3.org/2000/svg" xmlns:xlink="http://www.w3.org/1999/xlink" contentStyleType="text/css" height="441px" preserveAspectRatio="none" style="width:767px;height:441px;background:#FFFFFF;" version="1.1" viewBox="0 0 767 441" width="767px" zoomAndPan="magnify"><defs/><g><!--cluster manifest--><g id="cluster_manifest"><path d="M462.76,122.68 L524.9398,122.68 A3.75,3.75 0 0 1 527.4398,125.18 L534.4398,147.7479 L757.76,147.7479 A2.5,2.5 0 0 1 760.26,150.2479 L760.26,432.18 A2.5,2.5 0 0 1 757.76,434.68 L462.76,434.68 A2.5,2.5 0 0 1 460.26,432.18 L460.26,125.18 A2.5,2.5 0 0 1 462.76,122.68 " fill="#EFEFEF" style="stroke:#000000;stroke-width:3.0;"/><line style="stroke:#000000;stroke-width:3.0;" x1="460.26" x2="534.4398" y1="147.7479" y2="147.7479"/><text fill="#000000" font-family="sans-serif" font-size="14" font-weight="bold" lengthAdjust="spacing" textLength="61.1798" x="464.26" y="139.6459">manifest</text></g><!--cluster target--><g id="cluster_target"><rect fill="#D9D2F3" height="153" rx="2.5" ry="2.5" style="stroke:#181818;stroke-width:1.0;" width="236" x="492.26" y="176.68"/><rect fill="#D9D2F3" height="10" style="stroke:#181818;stroke-width:1.0;" width="15" x="708.26" y="181.68"/><rect fill="#D9D2F3" height="2" style="stroke:#181818;stroke-width:1.0;" width="4" x="706.26" y="183.68"/><rect fill="#D9D2F3" height="2" style="stroke:#181818;stroke-width:1.0;" width="4" x="706.26" y="187.68"/><text fill="#000000" font-family="sans-serif" font-size="14" font-weight="bold" lengthAdjust="spacing" textLength="42.8749" x="506.0689" y="204.6459">target</text><text fill="#000000" font-family="sans-serif" font-size="14" lengthAdjust="spacing" textLength="161.8674" x="552.5837" y="204.6459">declared in this manifest</text></g><!--cluster manifest2--><g id="cluster_manifest2"><path d="M128.89,191.68 L251.4376,191.68 A3.75,3.75 0 0 1 253.9376,194.18 L260.9376,216.7479 L294.77,216.7479 A2.5,2.5 0 0 1 297.27,219.2479 L297.27,293.18 A2.5,2.5 0 0 1 294.77,295.68 L128.89,295.68 A2.5,2.5 0 0 1 126.39,293.18 L126.39,194.18 A2.5,2.5 0 0 1 128.89,191.68 " fill="#EFEFEF" style="stroke:#000000;stroke-width:3.0;"/><line style="stroke:#000000;stroke-width:3.0;" x1="126.39" x2="260.9376" y1="216.7479" y2="216.7479"/><text fill="#000000" font-family="sans-serif" font-size="14" font-weight="bold" lengthAdjust="spacing" textLength="121.5476" x="130.39" y="208.6459">another-manifest</text></g><!--entity binding--><g id="elem_binding"><rect fill="#FFC2C2" height="61.1358" rx="2.5" ry="2.5" style="stroke:#181818;stroke-width:0.5;" width="265.199" x="477.66" y="357.11"/><polygon fill="#FFC2C2" points="725.859,362.11,725.859,376.11,737.859,376.11,737.859,368.11,731.859,362.11,725.859,362.11" style="stroke:#181818;stroke-width:0.5;"/><line style="stroke:#181818;stroke-width:0.5;" x1="731.859" x2="731.859" y1="362.11" y2="368.11"/><line style="stroke:#181818;stroke-width:0.5;" x1="737.859" x2="731.859" y1="368.11" y2="368.11"/><text fill="#000000" font-family="sans-serif" font-size="14" font-weight="bold" lengthAdjust="spacing" textLength="231.3911" x="487.66" y="385.0759">Binding provided by the manifest</text><text fill="#000000" font-family="monospace" font-size="14" lengthAdjust="spacing" textLength="235.199" x="487.66" y="404.1439">Path&#160;of&#160;the&#160;binding&#160;.so&#160;file</text></g><!--entity api--><g id="elem_api"><ellipse cx="610.26" cy="254.68" fill="#DBF3F5" rx="8" ry="8" style="stroke:#181818;stroke-width:0.5;"/><text fill="#000000" font-family="sans-serif" font-size="14" lengthAdjust="spacing" textLength="173.0254" x="523.7473" y="286.6459">API provided by the target</text></g><!--entity target--><g id="elem_target"><rect fill="#D9D2F3" height="49.0679" rx="2.5" ry="2.5" style="stroke:#181818;stroke-width:0.5;" width="138.8746" x="142.39" y="230.15"/><rect fill="#D9D2F3" height="10" style="stroke:#181818;stroke-width:0.5;" width="15" x="261.2646" y="235.15"/><rect fill="#D9D2F3" height="2" style="stroke:#181818;stroke-width:0.5;" width="4" x="259.2646" y="237.15"/><rect fill="#D9D2F3" height="2" style="stroke:#181818;stroke-width:0.5;" width="4" x="259.2646" y="241.15"/><text fill="#000000" font-family="sans-serif" font-size="14" lengthAdjust="spacing" textLength="52.3598" x="157.39" y="265.1159">another</text><text fill="#000000" font-family="sans-serif" font-size="14" font-weight="bold" lengthAdjust="spacing" textLength="42.8749" x="213.3898" y="265.1159">target</text></g><g id="elem_N"><path d="M6,6 L6,175.3541 L417.6601,175.3541 L417.6601,16 L407.6601,6 L6,6 " fill="#FEFFDD" style="stroke:#181818;stroke-width:0.5;"/><path d="M407.6601,6 L407.6601,16 L417.6601,16 L407.6601,6 " fill="#FEFFDD" style="stroke:#181818;stroke-width:1.0;"/><text fill="#000000" font-family="sans-serif" font-size="13" font-weight="bold" lengthAdjust="spacing" textLength="63.0793" x="12" y="24.897">Manifests</text><text fill="#000000" font-family="sans-serif" font-size="13" lengthAdjust="spacing" textLength="207.4671" x="78.4593" y="24.897">are represented as UML packages</text><path d="M290.3065,16.7893 L290.3065,18.956 L298.9731,18.956 L298.9731,17.8727 L293.5565,17.8727 L293.5565,16.7893 L290.3065,16.7893 M290.3065,20.0393 L290.3065,24.9143 C290.3065,25.2177 290.5448,25.456 290.8481,25.456 L298.4315,25.456 C298.7348,25.456 298.9731,25.2177 298.9731,24.9143 L298.9731,20.0393 L290.3065,20.0393 " fill="#000000" style="stroke:;stroke-width:0.0;stroke-dasharray:;"/><text fill="#000000" font-family="sans-serif" font-size="13" lengthAdjust="spacing" textLength="3.484" x="299.9731" y="24.897">;</text><text fill="#800080" font-family="sans-serif" font-size="13" font-weight="bold" lengthAdjust="spacing" textLength="46.4458" x="306.8371" y="24.897">targets</text><text fill="#000000" font-family="sans-serif" font-size="13" lengthAdjust="spacing" textLength="13.52" x="356.6629" y="24.897">as</text><text fill="#000000" font-family="sans-serif" font-size="13" lengthAdjust="spacing" textLength="76.4401" x="12" y="42.603">components</text><path d="M93.6326,34.4954 C93.1884,34.4954 92.8201,34.8637 92.8201,35.3079 L92.8201,41.2662 C92.8201,41.7104 93.1884,42.0787 93.6326,42.0787 L100.6743,42.0787 C101.1184,42.0787 101.4868,41.7104 101.4868,41.2662 L101.4868,35.3079 C101.4868,34.8637 101.1184,34.4954 100.6743,34.4954 L93.6326,34.4954 M93.9034,35.5787 L94.9868,35.5787 L94.9868,36.662 L93.9034,36.662 L93.9034,35.5787 M96.0701,35.5787 L100.4034,35.5787 L100.4034,36.662 L96.0701,36.662 L96.0701,35.5787 M93.9034,37.7454 L94.9868,37.7454 L94.9868,38.8287 L93.9034,38.8287 L93.9034,37.7454 M96.0701,37.7454 L100.4034,37.7454 L100.4034,38.8287 L96.0701,38.8287 L96.0701,37.7454 M93.9034,39.912 L94.9868,39.912 L94.9868,40.9954 L93.9034,40.9954 L93.9034,39.912 M96.0701,39.912 L100.4034,39.912 L100.4034,40.9954 L96.0701,40.9954 L96.0701,39.912 " fill="#000000" style="stroke:;stroke-width:0.0;stroke-dasharray:;"/><text fill="#000000" font-family="sans-serif" font-size="13" lengthAdjust="spacing" textLength="3.484" x="102.4868" y="42.603">;</text><text fill="#FA8072" font-family="sans-serif" font-size="13" font-weight="bold" lengthAdjust="spacing" textLength="56.2381" x="109.3508" y="42.603">bindings</text><text fill="#000000" font-family="sans-serif" font-size="13" lengthAdjust="spacing" textLength="66.534" x="168.9688" y="42.603">as artifacts</text><path d="M239.8829,34.4954 L239.8829,43.162 L247.4662,43.162 L247.4662,38.8287 L243.1329,38.8287 L243.1329,34.4954 L239.8829,34.4954 M244.2162,34.4954 L244.2162,37.7454 L247.4662,37.7454 L244.2162,34.4954 " fill="#000000" style="stroke:;stroke-width:0.0;stroke-dasharray:;"/><text fill="#000000" font-family="sans-serif" font-size="13" lengthAdjust="spacing" textLength="3.484" x="249.5496" y="42.603">,</text><text fill="#ADD8E6" font-family="sans-serif" font-size="13" font-weight="bold" lengthAdjust="spacing" textLength="28.431" x="256.4136" y="42.603">APIs</text><text fill="#000000" font-family="sans-serif" font-size="13" lengthAdjust="spacing" textLength="77.246" x="288.2246" y="42.603">as interfaces</text><path d="M374.184,35.5787 C372.3856,35.5787 370.934,37.0304 370.934,38.8287 C370.934,40.627 372.3856,42.0787 374.184,42.0787 C375.9823,42.0787 377.434,40.627 377.434,38.8287 C377.434,37.0304 375.9823,35.5787 374.184,35.5787 " fill="#000000" style="stroke:;stroke-width:0.0;stroke-dasharray:;"/><text fill="#000000" font-family="sans-serif" font-size="13" lengthAdjust="spacing" textLength="3.484" x="379.5173" y="42.603">.</text><text fill="#000000" font-family="sans-serif" font-size="13" lengthAdjust="spacing" textLength="3.38" x="12" y="60.309">&#160;</text><text fill="#000000" font-family="sans-serif" font-size="13" lengthAdjust="spacing" textLength="278.8763" x="12" y="78.0151">An arrow from X to Y means that X requires Y.</text><text fill="#ADD8E6" font-family="sans-serif" font-size="13" font-weight="bold" lengthAdjust="spacing" textLength="21.7978" x="294.2563" y="78.0151">API</text><text fill="#000000" font-family="sans-serif" font-size="13" lengthAdjust="spacing" textLength="83.2261" x="319.434" y="78.0151">requirements</text><text fill="#000000" font-family="sans-serif" font-size="13" lengthAdjust="spacing" textLength="104.2081" x="12" y="95.7211">use plain arrows.</text><text fill="#FA8072" font-family="sans-serif" font-size="13" font-weight="bold" lengthAdjust="spacing" textLength="50.0598" x="119.5881" y="95.7211">Binding</text><text fill="#000000" font-family="sans-serif" font-size="13" lengthAdjust="spacing" textLength="205.6602" x="173.0279" y="95.7211">requirements use dashed arrows.</text><text fill="#000000" font-family="sans-serif" font-size="13" lengthAdjust="spacing" textLength="3.38" x="12" y="113.4271">&#160;</text><text fill="#800080" font-family="sans-serif" font-size="13" lengthAdjust="spacing" textLength="48.62" x="12" y="131.1331">another</text><text fill="#800080" font-family="sans-serif" font-size="13" font-weight="bold" lengthAdjust="spacing" textLength="39.8125" x="64" y="131.1331">target</text><text fill="#000000" font-family="sans-serif" font-size="13" lengthAdjust="spacing" textLength="53.3" x="107.1926" y="131.1331">from the</text><text fill="#000000" font-family="sans-serif" font-size="13" font-weight="bold" lengthAdjust="spacing" textLength="112.8661" x="163.8726" y="131.1331">another-manifest</text><text fill="#000000" font-family="sans-serif" font-size="13" lengthAdjust="spacing" textLength="74.4511" x="280.1187" y="131.1331">requires the</text><text fill="#ADD8E6" font-family="sans-serif" font-size="13" font-weight="bold" lengthAdjust="spacing" textLength="21.7978" x="357.9498" y="131.1331">API</text><text fill="#000000" font-family="sans-serif" font-size="13" lengthAdjust="spacing" textLength="72.5141" x="12" y="148.8391">provided by</text><text fill="#800080" font-family="sans-serif" font-size="13" font-weight="bold" lengthAdjust="spacing" textLength="39.8125" x="87.8941" y="148.8391">target</text><text fill="#000000" font-family="sans-serif" font-size="13" lengthAdjust="spacing" textLength="11.388" x="131.0866" y="148.8391">in</text><text fill="#000000" font-family="sans-serif" font-size="13" font-weight="bold" lengthAdjust="spacing" textLength="56.81" x="145.8546" y="148.8391">manifest</text><text fill="#000000" font-family="sans-serif" font-size="13" lengthAdjust="spacing" textLength="3.484" x="202.6647" y="148.8391">.</text><text fill="#800080" font-family="sans-serif" font-size="13" font-weight="bold" lengthAdjust="spacing" textLength="39.8125" x="209.5287" y="148.8391">target</text><text fill="#000000" font-family="sans-serif" font-size="13" lengthAdjust="spacing" textLength="29.861" x="252.7212" y="148.8391">from</text><text fill="#000000" font-family="sans-serif" font-size="13" font-weight="bold" lengthAdjust="spacing" textLength="56.81" x="285.9622" y="148.8391">manifest</text><text fill="#000000" font-family="sans-serif" font-size="13" lengthAdjust="spacing" textLength="74.4511" x="12" y="166.5451">requires the</text><text fill="#FA8072" font-family="sans-serif" font-size="13" font-weight="bold" lengthAdjust="spacing" textLength="49.6048" x="89.8311" y="166.5451">binding</text><text fill="#000000" font-family="sans-serif" font-size="13" lengthAdjust="spacing" textLength="192.7642" x="142.8159" y="166.5451">provided by the same manifest.</text></g><!--link target to binding--><g id="link_target_binding"><path codeLine="25" d="M610.26,329.7251 C610.26,329.7653 610.26,329.8057 610.26,329.8462 C610.26,330.17 610.26,330.5015 610.26,330.8401 C610.26,332.1946 610.26,333.6641 610.26,335.2238 C610.26,341.4625 610.26,343.145 610.26,350.69 " fill="none" id="target-to-binding" style="stroke:#181818;stroke-width:1.0;stroke-dasharray:7.0,7.0;"/><polygon fill="#181818" points="610.26,356.69,614.26,347.69,610.26,351.69,606.26,347.69,610.26,356.69" style="stroke:#181818;stroke-width:1.0;"/></g><!--link target to api--><g id="link_target_api"><path codeLine="26" d="M281.69,254.68 C382.12,254.68 553.82,254.68 595.39,254.68 " fill="none" id="target-to-api" style="stroke:#181818;stroke-width:1.0;"/><polygon fill="#181818" points="601.39,254.68,592.39,250.68,596.39,254.68,592.39,258.68,601.39,254.68" style="stroke:#181818;stroke-width:1.0;"/></g><!--SRC=[ZLHTYzim47pNhrXSAArfN4ZeGsbgo1qK3kvAe2tqA7rGh5KiOakkfBI4al_UbMB77qcFSy0GUtPsPpHhjrEwuPRNS6lgncZK_fFH_ei_L0ZQs9fNp9qnA-kLv8M_uSLkQyrUYrjJ6Gilf2pcnNo0lDCUBK7n0YesSY7V3Q1hGl3j9H1b-5q16YlGVYrLiTFe72m6a7kbqHyQ16DzQHYhK7hm1gpQbXw4ibXuPJHZpOaBaffh9T7v1BY3xW_yPK1NqLa2IPfwRhVeqnG45XMtA41fyANggqOKsGbFUj-BkLoqZE5wzHgIrVeE6cj-Aq4ycmFn89mA8WblL8GVuvsthiD6QQ7q5dwSkTBqfdqsPUlcIDCpE4dMt9TWP0HqP9ap85M5IHA1Fzbnu0xNXh1sTbNY_DAc5W-zNUEAwwuSGy-fSLdUZSWkocUpF7h4g1s61f_PoOs75kdedEYCm69ZqT5eP0p1lZtSGwlDmVAbD1KbAVy0IqcP9nsKku_DtZOLvfq2Obg-3Q-fenlB3HIE-Bbm9QAVy3XUrKOJJwjYH7G-qpW6kP-_6HLN8Q-RQX_ceAoCQrMtMw6uHg7uZ79DMv5dB4wuqiHlpH-GrjJmFIp08zJ8jQEJvvwUMForfsLmy9WzrRTlsnRKGNRiiNS8JSLLsyfbryMtyRnE54a49_T4nt8ISEKyBfFLCKQH8T5fEeqhfU2iD22U8pKECDoc9yBH3q4-f6dVDdjULHnzM1UR_tVaQQHwekdsErxtdu2CeHOGLeNz0m00]--></g></svg>